<svg width="23" height="22" viewBox="0 0 23 22" fill="none" xmlns="http://www.w3.org/2000/svg">
<g clip-path="url(#clip0_120_8)">
<path d="M16.0936 12.4667C16.2768 11.9976 16.3699 11.5007 16.3683 11C16.3683 9.88815 15.9066 8.82184 15.0846 8.03564C14.2627 7.24945 13.1479 6.80777 11.9855 6.80777C11.4685 6.80848 10.9557 6.89747 10.4714 7.07055L11.5 8.08499C11.6564 8.06158 11.8144 8.04932 11.9728 8.04833C12.7947 8.04668 13.5838 8.35617 14.168 8.90919C14.7521 9.46222 15.0838 10.2139 15.0905 11C15.0895 11.1514 15.0767 11.3026 15.0522 11.4522L16.0936 12.4667Z" fill="#303A41"/>
<path d="M21.9075 10.7128C19.7545 6.90554 15.9786 4.60165 11.8003 4.60165C10.6626 4.604 9.53261 4.77934 8.45251 5.1211L9.48113 6.1111C10.2388 5.92394 11.0178 5.82746 11.8003 5.82388C15.3972 5.82388 18.6683 7.74276 20.617 10.9755C19.9015 12.1745 18.954 13.2322 17.825 14.0922L18.7322 14.96C20.0398 13.9516 21.1255 12.7054 21.9267 11.2933L22.0928 11L21.9075 10.7128Z" fill="#303A41"/>
<path d="M3.1114 3.53223L5.96085 6.25778C4.15939 7.3666 2.68728 8.90099 1.68668 10.7128L1.52057 11L1.68668 11.2933C3.83974 15.1006 7.61557 17.4045 11.7939 17.4045C13.4248 17.4048 15.0347 17.0517 16.5025 16.3717L19.697 19.4272L20.815 18.5106L4.2039 2.62167L3.1114 3.53223ZM9.34057 9.49056L13.5892 13.5545C13.1093 13.839 12.5566 13.9912 11.992 13.9945C11.5817 13.9945 11.1756 13.9169 10.7968 13.7662C10.4181 13.6155 10.0742 13.3946 9.78507 13.1163C9.4959 12.838 9.26712 12.5077 9.11189 12.1445C8.95665 11.7813 8.87804 11.3924 8.88057 11C8.88745 10.4662 9.04649 9.9443 9.34057 9.49056ZM8.41418 8.60445C7.81646 9.41075 7.5363 10.3934 7.62331 11.3783C7.71032 12.3632 8.15888 13.2869 8.88958 13.9858C9.62028 14.6848 10.586 15.1138 11.6157 15.197C12.6454 15.2803 13.6726 15.0123 14.5156 14.4406L15.5378 15.4183C14.3545 15.9023 13.0809 16.1518 11.7939 16.1517C8.19696 16.1517 4.92585 14.2328 2.97724 11C3.91261 9.41631 5.25935 8.09024 6.88724 7.15001L8.41418 8.60445Z" fill="#303A41"/>
</g>
<defs>
<clipPath id="clip0_120_8">
<rect width="23" height="22" fill="white"/>
</clipPath>
</defs>
</svg>
