<svg width="22" height="22" viewBox="0 0 22 22" fill="none" xmlns="http://www.w3.org/2000/svg">
<g clip-path="url(#clip0_120_17)">
<path d="M20.5455 10.7128C18.4861 6.90554 14.8744 4.60165 10.8778 4.60165C6.88109 4.60165 3.26331 6.90554 1.2222 10.7128L1.05109 11L1.20998 11.2933C3.26942 15.1005 6.88109 17.4044 10.8778 17.4044C14.8744 17.4044 18.4922 15.1311 20.5455 11.2933L20.7044 11L20.5455 10.7128ZM10.8778 16.1517C7.4372 16.1517 4.27775 14.2328 2.44442 11C4.27775 7.76721 7.4372 5.84832 10.8778 5.84832C14.3183 5.84832 17.4411 7.77332 19.305 11C17.4411 14.2328 14.3122 16.1517 10.8778 16.1517Z" fill="#303A41"/>
<path d="M11.055 6.8261C10.2264 6.83215 9.41819 7.08361 8.73242 7.54873C8.04666 8.01385 7.51411 8.67175 7.20205 9.43936C6.88998 10.207 6.81238 11.0498 6.97907 11.8615C7.14575 12.6732 7.54923 13.4173 8.13856 13.9998C8.72788 14.5823 9.4766 14.9771 10.2902 15.1343C11.1037 15.2915 11.9456 15.2041 12.7096 14.8831C13.4735 14.5621 14.1251 14.022 14.5822 13.3308C15.0393 12.6397 15.2814 11.8286 15.2778 11C15.2754 10.4484 15.1642 9.90275 14.9505 9.39424C14.7368 8.88574 14.4249 8.4244 14.0326 8.03665C13.6404 7.64891 13.1754 7.34239 12.6644 7.13466C12.1535 6.92693 11.6066 6.82208 11.055 6.8261ZM11.055 13.9883C10.4697 13.9823 9.89925 13.8034 9.41528 13.4743C8.9313 13.1451 8.55538 12.6802 8.33473 12.1381C8.11408 11.5959 8.05854 11.0007 8.17509 10.4271C8.29163 9.8535 8.57507 9.32713 8.9898 8.91409C9.40452 8.50105 9.93205 8.21977 10.5061 8.10556C11.0802 7.99136 11.6752 8.04933 12.2164 8.27219C12.7577 8.49505 13.221 8.87286 13.5482 9.35818C13.8754 9.8435 14.0519 10.4147 14.0556 11C14.0572 11.3939 13.9806 11.7842 13.8302 12.1483C13.6799 12.5124 13.4587 12.8431 13.1796 13.121C12.9005 13.399 12.569 13.6188 12.2043 13.7677C11.8395 13.9166 11.4489 13.9916 11.055 13.9883Z" fill="#303A41"/>
</g>
<defs>
<clipPath id="clip0_120_17">
<rect width="22" height="22" fill="white"/>
</clipPath>
</defs>
</svg>
